{"asset":{"copyright":"","generator":"Source 2 Viewer 20.0.0.0 - https://valveresourceformat.github.io","version":"2.0"},"accessors":[{"bufferView":0,"componentType":5126,"count":103606,"max":[6.6997246742248535,14.223998069763184,8.305798530578613],"min":[-6.6997246742248535,-1.159994326371816E-06,-6.725165843963623],"type":"VEC3"},{"bufferView":1,"componentType":5126,"count":103606,"max":[1.0341796875,2.27734375],"min":[-1.27734375,-1.1875],"type":"VEC2"},{"bufferView":2,"componentType":5126,"count":103606,"max":[0.9999994039535522,0.999998927116394,0.9999994039535522],"min":[-0.9999994039535522,-0.9999998807907104,-0.9999994039535522],"type":"VEC3"},{"bufferView":3,"componentType":5126,"count":103606,"type":"VEC4"},{"bufferView":4,"componentType":5125,"count":1848,"type":"SCALAR"},{"bufferView":5,"componentType":5125,"count":72000,"type":"SCALAR"},{"bufferView":6,"componentType":5125,"count":12456,"type":"SCALAR"},{"bufferView":7,"componentType":5125,"count":27798,"type":"SCALAR"}],"bufferViews":[{"buffer":0,"byteLength":1243272,"byteOffset":1657696,"target":34962},{"buffer":0,"byteLength":828848,"byteOffset":4144240,"target":34962},{"buffer":0,"byteLength":1243272,"byteOffset":2900968,"target":34962},{"buffer":0,"byteLength":1657696,"target":34962},{"buffer":0,"byteLength":7392,"byteOffset":5422104,"target":34963},{"buffer":0,"byteLength":288000,"byteOffset":4973088,"target":34963},{"buffer":0,"byteLength":49824,"byteOffset":5372280,"target":34963},{"buffer":0,"byteLength":111192,"byteOffset":5261088,"target":34963}],"buffers":[{"byteLength":5429496,"uri":"engine_pavilion.bin"}],"meshes":[{"extras":{},"name":"D:\\steam\\steamapps\\common\\dota 2 beta\\game\\dota_addons\\survival\\models\\xianxia_kit\\a01_pavilion.vmdl_c.a01_pavilion","primitives":[{"attributes":{"POSITION":0,"TEXCOORD_0":1,"NORMAL":2,"TANGENT":3},"indices":4},{"attributes":{"POSITION":0,"TEXCOORD_0":1,"NORMAL":2,"TANGENT":3},"indices":5},{"attributes":{"POSITION":0,"TEXCOORD_0":1,"NORMAL":2,"TANGENT":3},"indices":6},{"attributes":{"POSITION":0,"TEXCOORD_0":1,"NORMAL":2,"TANGENT":3},"indices":7}]}],"nodes":[{"name":"D:\\steam\\steamapps\\common\\dota 2 beta\\game\\dota_addons\\survival\\models\\xianxia_kit\\a01_pavilion.vmdl_c.a01_pavilion","matrix":[0.99999994,-2.425888E-15,-6.793577E-22,0,-2.7940974E-23,0.99999994,-3.1914448E-15,0,-2.425888E-15,-2.7940974E-23,0.99999994,0,0,0,0,1],"mesh":0}],"samplers":[{"magFilter":9729,"minFilter":9987}],"scenes":[{"name":"a01_pavilion.vmdl_c","nodes":[0]}]}